solid OpenSCAD_Model
  facet normal 0 0 -1
    outer loop
      vertex -62.6993 13.3271 0
      vertex -58.5583 26.0718 0
      vertex -64.1 0 0
    endloop
  endfacet
  facet normal 0 0 -1
    outer loop
      vertex -64.1 0 0
      vertex -58.5583 26.0718 0
      vertex -51.858 37.677 0
    endloop
  endfacet
  facet normal 0 0 -1
    outer loop
      vertex -64.1 0 0
      vertex -51.858 37.677 0
      vertex -42.8913 47.6356 0
    endloop
  endfacet
  facet normal 0 0 -1
    outer loop
      vertex -64.1 0 0
      vertex -42.8913 47.6356 0
      vertex -32.05 55.5122 0
    endloop
  endfacet
  facet normal 0 0 -1
    outer loop
      vertex -64.1 0 0
      vertex -32.05 55.5122 0
      vertex -19.808 60.9627 0
    endloop
  endfacet
  facet normal 0 0 -1
    outer loop
      vertex -64.1 0 0
      vertex -19.808 60.9627 0
      vertex -6.70027 63.7489 0
    endloop
  endfacet
  facet normal 0 0 -1
    outer loop
      vertex -64.1 0 0
      vertex -6.70027 63.7489 0
      vertex 6.70027 63.7489 0
    endloop
  endfacet
  facet normal 0 0 -1
    outer loop
      vertex -64.1 0 0
      vertex 6.70027 63.7489 0
      vertex 19.808 60.9627 0
    endloop
  endfacet
  facet normal 0 0 -1
    outer loop
      vertex -64.1 0 0
      vertex 19.808 60.9627 0
      vertex 32.05 55.5122 0
    endloop
  endfacet
  facet normal 0 0 -1
    outer loop
      vertex -64.1 0 0
      vertex 32.05 55.5122 0
      vertex 42.8913 47.6356 0
    endloop
  endfacet
  facet normal 0 0 -1
    outer loop
      vertex -64.1 0 0
      vertex 42.8913 47.6356 0
      vertex 51.858 37.677 0
    endloop
  endfacet
  facet normal 0 0 -1
    outer loop
      vertex -64.1 0 0
      vertex 51.858 37.677 0
      vertex 58.5583 26.0718 0
    endloop
  endfacet
  facet normal 0 0 -1
    outer loop
      vertex -64.1 0 0
      vertex 58.5583 26.0718 0
      vertex 62.6993 13.3271 0
    endloop
  endfacet
  facet normal 0 0 -1
    outer loop
      vertex -64.1 0 0
      vertex 62.6993 13.3271 0
      vertex 64.1 0 0
    endloop
  endfacet
  facet normal 0 0 -1
    outer loop
      vertex -64.1 0 0
      vertex 64.1 0 0
      vertex 62.6993 -13.3271 0
    endloop
  endfacet
  facet normal 0 0 -1
    outer loop
      vertex -64.1 0 0
      vertex 62.6993 -13.3271 0
      vertex 58.5583 -26.0718 0
    endloop
  endfacet
  facet normal 0 0 -1
    outer loop
      vertex -64.1 0 0
      vertex 58.5583 -26.0718 0
      vertex 51.858 -37.677 0
    endloop
  endfacet
  facet normal 0 0 -1
    outer loop
      vertex -64.1 0 0
      vertex 51.858 -37.677 0
      vertex 42.8913 -47.6356 0
    endloop
  endfacet
  facet normal 0 0 -1
    outer loop
      vertex -64.1 0 0
      vertex 42.8913 -47.6356 0
      vertex 32.05 -55.5122 0
    endloop
  endfacet
  facet normal 0 0 -1
    outer loop
      vertex -64.1 0 0
      vertex 32.05 -55.5122 0
      vertex 19.808 -60.9627 0
    endloop
  endfacet
  facet normal 0 0 -1
    outer loop
      vertex -64.1 0 0
      vertex 19.808 -60.9627 0
      vertex 6.70027 -63.7489 0
    endloop
  endfacet
  facet normal 0 0 -1
    outer loop
      vertex -64.1 0 0
      vertex 6.70027 -63.7489 0
      vertex -6.70027 -63.7489 0
    endloop
  endfacet
  facet normal 0 0 -1
    outer loop
      vertex -64.1 0 0
      vertex -6.70027 -63.7489 0
      vertex -19.808 -60.9627 0
    endloop
  endfacet
  facet normal 0 0 -1
    outer loop
      vertex -64.1 0 0
      vertex -19.808 -60.9627 0
      vertex -32.05 -55.5122 0
    endloop
  endfacet
  facet normal 0 0 -1
    outer loop
      vertex -64.1 0 0
      vertex -32.05 -55.5122 0
      vertex -42.8913 -47.6356 0
    endloop
  endfacet
  facet normal 0 0 -1
    outer loop
      vertex -64.1 0 0
      vertex -42.8913 -47.6356 0
      vertex -51.858 -37.677 0
    endloop
  endfacet
  facet normal 0 0 -1
    outer loop
      vertex -64.1 0 0
      vertex -51.858 -37.677 0
      vertex -58.5583 -26.0718 0
    endloop
  endfacet
  facet normal 0 0 -1
    outer loop
      vertex -64.1 0 0
      vertex -58.5583 -26.0718 0
      vertex -62.6993 -13.3271 0
    endloop
  endfacet
  facet normal 0.994522 0.104528 0
    outer loop
      vertex 62.6993 13.3271 0
      vertex 62.6993 13.3271 3
      vertex 64.1 0 3
    endloop
  endfacet
  facet normal 0.994522 0.104528 0
    outer loop
      vertex 64.1 0 0
      vertex 62.6993 13.3271 0
      vertex 64.1 0 3
    endloop
  endfacet
  facet normal 0.951057 0.309017 0
    outer loop
      vertex 58.5583 26.0718 0
      vertex 58.5583 26.0718 3
      vertex 62.6993 13.3271 3
    endloop
  endfacet
  facet normal 0.951057 0.309017 0
    outer loop
      vertex 62.6993 13.3271 0
      vertex 58.5583 26.0718 0
      vertex 62.6993 13.3271 3
    endloop
  endfacet
  facet normal -0.994522 0.104528 0
    outer loop
      vertex -64.1 0 3
      vertex -62.6993 13.3271 3
      vertex -64.1 0 0
    endloop
  endfacet
  facet normal -0.994522 0.104528 0
    outer loop
      vertex -64.1 0 0
      vertex -62.6993 13.3271 3
      vertex -62.6993 13.3271 0
    endloop
  endfacet
  facet normal -0.994522 -0.104528 0
    outer loop
      vertex -62.6993 -13.3271 0
      vertex -62.6993 -13.3271 3
      vertex -64.1 0 0
    endloop
  endfacet
  facet normal -0.994522 -0.104528 0
    outer loop
      vertex -64.1 0 0
      vertex -62.6993 -13.3271 3
      vertex -64.1 0 3
    endloop
  endfacet
  facet normal -0.951057 -0.309017 0
    outer loop
      vertex -58.5583 -26.0718 0
      vertex -58.5583 -26.0718 3
      vertex -62.6993 -13.3271 0
    endloop
  endfacet
  facet normal -0.951057 -0.309017 0
    outer loop
      vertex -62.6993 -13.3271 0
      vertex -58.5583 -26.0718 3
      vertex -62.6993 -13.3271 3
    endloop
  endfacet
  facet normal -0.866025 -0.5 0
    outer loop
      vertex -51.858 -37.677 0
      vertex -51.858 -37.677 3
      vertex -58.5583 -26.0718 0
    endloop
  endfacet
  facet normal -0.866025 -0.5 0
    outer loop
      vertex -58.5583 -26.0718 0
      vertex -51.858 -37.677 3
      vertex -58.5583 -26.0718 3
    endloop
  endfacet
  facet normal -0.743145 -0.669131 0
    outer loop
      vertex -42.8913 -47.6356 0
      vertex -42.8913 -47.6356 3
      vertex -51.858 -37.677 0
    endloop
  endfacet
  facet normal -0.743145 -0.669131 0
    outer loop
      vertex -51.858 -37.677 0
      vertex -42.8913 -47.6356 3
      vertex -51.858 -37.677 3
    endloop
  endfacet
  facet normal -0.587785 -0.809017 0
    outer loop
      vertex -42.8913 -47.6356 0
      vertex -32.05 -55.5122 0
      vertex -32.05 -55.5122 3
    endloop
  endfacet
  facet normal -0.587785 -0.809017 0
    outer loop
      vertex -42.8913 -47.6356 3
      vertex -42.8913 -47.6356 0
      vertex -32.05 -55.5122 3
    endloop
  endfacet
  facet normal -0.406737 -0.913545 0
    outer loop
      vertex -32.05 -55.5122 0
      vertex -19.808 -60.9627 0
      vertex -19.808 -60.9627 3
    endloop
  endfacet
  facet normal -0.406737 -0.913545 0
    outer loop
      vertex -32.05 -55.5122 3
      vertex -32.05 -55.5122 0
      vertex -19.808 -60.9627 3
    endloop
  endfacet
  facet normal -0.207912 -0.978148 0
    outer loop
      vertex -19.808 -60.9627 0
      vertex -6.70027 -63.7489 0
      vertex -6.70027 -63.7489 3
    endloop
  endfacet
  facet normal -0.207912 -0.978148 0
    outer loop
      vertex -19.808 -60.9627 3
      vertex -19.808 -60.9627 0
      vertex -6.70027 -63.7489 3
    endloop
  endfacet
  facet normal 0 -1 0
    outer loop
      vertex -6.70027 -63.7489 0
      vertex 6.70027 -63.7489 0
      vertex 6.70027 -63.7489 3
    endloop
  endfacet
  facet normal 0 -1 0
    outer loop
      vertex -6.70027 -63.7489 3
      vertex -6.70027 -63.7489 0
      vertex 6.70027 -63.7489 3
    endloop
  endfacet
  facet normal 0.207912 -0.978148 0
    outer loop
      vertex 6.70027 -63.7489 0
      vertex 19.808 -60.9627 0
      vertex 19.808 -60.9627 3
    endloop
  endfacet
  facet normal 0.207912 -0.978148 0
    outer loop
      vertex 6.70027 -63.7489 3
      vertex 6.70027 -63.7489 0
      vertex 19.808 -60.9627 3
    endloop
  endfacet
  facet normal 0.406737 -0.913545 0
    outer loop
      vertex 19.808 -60.9627 0
      vertex 32.05 -55.5122 0
      vertex 32.05 -55.5122 3
    endloop
  endfacet
  facet normal 0.406737 -0.913545 0
    outer loop
      vertex 19.808 -60.9627 3
      vertex 19.808 -60.9627 0
      vertex 32.05 -55.5122 3
    endloop
  endfacet
  facet normal 0.587785 -0.809017 0
    outer loop
      vertex 32.05 -55.5122 0
      vertex 42.8913 -47.6356 0
      vertex 42.8913 -47.6356 3
    endloop
  endfacet
  facet normal 0.587785 -0.809017 0
    outer loop
      vertex 32.05 -55.5122 3
      vertex 32.05 -55.5122 0
      vertex 42.8913 -47.6356 3
    endloop
  endfacet
  facet normal 0.743145 -0.669131 0
    outer loop
      vertex 42.8913 -47.6356 0
      vertex 51.858 -37.677 0
      vertex 51.858 -37.677 3
    endloop
  endfacet
  facet normal 0.743145 -0.669131 0
    outer loop
      vertex 42.8913 -47.6356 3
      vertex 42.8913 -47.6356 0
      vertex 51.858 -37.677 3
    endloop
  endfacet
  facet normal 0.866025 -0.5 0
    outer loop
      vertex 51.858 -37.677 0
      vertex 58.5583 -26.0718 0
      vertex 58.5583 -26.0718 3
    endloop
  endfacet
  facet normal 0.866025 -0.5 0
    outer loop
      vertex 51.858 -37.677 3
      vertex 51.858 -37.677 0
      vertex 58.5583 -26.0718 3
    endloop
  endfacet
  facet normal 0.951057 -0.309017 0
    outer loop
      vertex 58.5583 -26.0718 0
      vertex 62.6993 -13.3271 0
      vertex 62.6993 -13.3271 3
    endloop
  endfacet
  facet normal 0.951057 -0.309017 0
    outer loop
      vertex 58.5583 -26.0718 3
      vertex 58.5583 -26.0718 0
      vertex 62.6993 -13.3271 3
    endloop
  endfacet
  facet normal 0.994522 -0.104528 0
    outer loop
      vertex 62.6993 -13.3271 0
      vertex 64.1 0 0
      vertex 64.1 0 3
    endloop
  endfacet
  facet normal 0.994522 -0.104528 0
    outer loop
      vertex 62.6993 -13.3271 3
      vertex 62.6993 -13.3271 0
      vertex 64.1 0 3
    endloop
  endfacet
  facet normal 0.866025 0.5 0
    outer loop
      vertex 51.858 37.677 0
      vertex 51.858 37.677 3
      vertex 58.5583 26.0718 3
    endloop
  endfacet
  facet normal 0.866025 0.5 0
    outer loop
      vertex 58.5583 26.0718 0
      vertex 51.858 37.677 0
      vertex 58.5583 26.0718 3
    endloop
  endfacet
  facet normal 0.743145 0.669131 0
    outer loop
      vertex 42.8913 47.6356 0
      vertex 42.8913 47.6356 3
      vertex 51.858 37.677 3
    endloop
  endfacet
  facet normal 0.743145 0.669131 0
    outer loop
      vertex 51.858 37.677 0
      vertex 42.8913 47.6356 0
      vertex 51.858 37.677 3
    endloop
  endfacet
  facet normal 0.587785 0.809017 0
    outer loop
      vertex 32.05 55.5122 3
      vertex 42.8913 47.6356 3
      vertex 32.05 55.5122 0
    endloop
  endfacet
  facet normal 0.587785 0.809017 0
    outer loop
      vertex 32.05 55.5122 0
      vertex 42.8913 47.6356 3
      vertex 42.8913 47.6356 0
    endloop
  endfacet
  facet normal 0.406737 0.913545 0
    outer loop
      vertex 19.808 60.9627 3
      vertex 32.05 55.5122 3
      vertex 19.808 60.9627 0
    endloop
  endfacet
  facet normal 0.406737 0.913545 0
    outer loop
      vertex 19.808 60.9627 0
      vertex 32.05 55.5122 3
      vertex 32.05 55.5122 0
    endloop
  endfacet
  facet normal 0.207912 0.978148 0
    outer loop
      vertex 6.70027 63.7489 3
      vertex 19.808 60.9627 3
      vertex 6.70027 63.7489 0
    endloop
  endfacet
  facet normal 0.207912 0.978148 0
    outer loop
      vertex 6.70027 63.7489 0
      vertex 19.808 60.9627 3
      vertex 19.808 60.9627 0
    endloop
  endfacet
  facet normal 0 1 0
    outer loop
      vertex -6.70027 63.7489 3
      vertex 6.70027 63.7489 3
      vertex -6.70027 63.7489 0
    endloop
  endfacet
  facet normal 0 1 0
    outer loop
      vertex -6.70027 63.7489 0
      vertex 6.70027 63.7489 3
      vertex 6.70027 63.7489 0
    endloop
  endfacet
  facet normal -0.207912 0.978148 0
    outer loop
      vertex -19.808 60.9627 3
      vertex -6.70027 63.7489 3
      vertex -19.808 60.9627 0
    endloop
  endfacet
  facet normal -0.207912 0.978148 0
    outer loop
      vertex -19.808 60.9627 0
      vertex -6.70027 63.7489 3
      vertex -6.70027 63.7489 0
    endloop
  endfacet
  facet normal -0.406737 0.913545 0
    outer loop
      vertex -32.05 55.5122 3
      vertex -19.808 60.9627 3
      vertex -32.05 55.5122 0
    endloop
  endfacet
  facet normal -0.406737 0.913545 0
    outer loop
      vertex -32.05 55.5122 0
      vertex -19.808 60.9627 3
      vertex -19.808 60.9627 0
    endloop
  endfacet
  facet normal -0.587785 0.809017 0
    outer loop
      vertex -42.8913 47.6356 3
      vertex -32.05 55.5122 3
      vertex -42.8913 47.6356 0
    endloop
  endfacet
  facet normal -0.587785 0.809017 0
    outer loop
      vertex -42.8913 47.6356 0
      vertex -32.05 55.5122 3
      vertex -32.05 55.5122 0
    endloop
  endfacet
  facet normal -0.743145 0.669131 0
    outer loop
      vertex -51.858 37.677 3
      vertex -42.8913 47.6356 3
      vertex -51.858 37.677 0
    endloop
  endfacet
  facet normal -0.743145 0.669131 0
    outer loop
      vertex -51.858 37.677 0
      vertex -42.8913 47.6356 3
      vertex -42.8913 47.6356 0
    endloop
  endfacet
  facet normal -0.866025 0.5 0
    outer loop
      vertex -58.5583 26.0718 3
      vertex -51.858 37.677 3
      vertex -58.5583 26.0718 0
    endloop
  endfacet
  facet normal -0.866025 0.5 0
    outer loop
      vertex -58.5583 26.0718 0
      vertex -51.858 37.677 3
      vertex -51.858 37.677 0
    endloop
  endfacet
  facet normal -0.951057 0.309017 0
    outer loop
      vertex -62.6993 13.3271 3
      vertex -58.5583 26.0718 3
      vertex -62.6993 13.3271 0
    endloop
  endfacet
  facet normal -0.951057 0.309017 0
    outer loop
      vertex -62.6993 13.3271 0
      vertex -58.5583 26.0718 3
      vertex -58.5583 26.0718 0
    endloop
  endfacet
  facet normal 0 0 1
    outer loop
      vertex -64.1 0 3
      vertex -62.6993 -13.3271 3
      vertex -58.5583 -26.0718 3
    endloop
  endfacet
  facet normal 0 0 1
    outer loop
      vertex -42.8913 -47.6356 3
      vertex -64.1 0 3
      vertex -51.858 -37.677 3
    endloop
  endfacet
  facet normal 0 0 1
    outer loop
      vertex -51.858 -37.677 3
      vertex -64.1 0 3
      vertex -58.5583 -26.0718 3
    endloop
  endfacet
  facet normal 0 0 1
    outer loop
      vertex -32.05 -55.5122 3
      vertex -64.1 0 3
      vertex -42.8913 -47.6356 3
    endloop
  endfacet
  facet normal 0 0 1
    outer loop
      vertex -19.808 -60.9627 3
      vertex -64.1 0 3
      vertex -32.05 -55.5122 3
    endloop
  endfacet
  facet normal 0 0 1
    outer loop
      vertex -6.70027 -63.7489 3
      vertex -64.1 0 3
      vertex -19.808 -60.9627 3
    endloop
  endfacet
  facet normal 0 0 1
    outer loop
      vertex 6.70027 -63.7489 3
      vertex -64.1 0 3
      vertex -6.70027 -63.7489 3
    endloop
  endfacet
  facet normal 0 0 1
    outer loop
      vertex 19.808 -60.9627 3
      vertex -64.1 0 3
      vertex 6.70027 -63.7489 3
    endloop
  endfacet
  facet normal 0 0 1
    outer loop
      vertex 32.05 -55.5122 3
      vertex -64.1 0 3
      vertex 19.808 -60.9627 3
    endloop
  endfacet
  facet normal 0 0 1
    outer loop
      vertex 42.8913 -47.6356 3
      vertex -64.1 0 3
      vertex 32.05 -55.5122 3
    endloop
  endfacet
  facet normal 0 0 1
    outer loop
      vertex 51.858 -37.677 3
      vertex -64.1 0 3
      vertex 42.8913 -47.6356 3
    endloop
  endfacet
  facet normal 0 0 1
    outer loop
      vertex 58.5583 -26.0718 3
      vertex -64.1 0 3
      vertex 51.858 -37.677 3
    endloop
  endfacet
  facet normal 0 0 1
    outer loop
      vertex 62.6993 -13.3271 3
      vertex -64.1 0 3
      vertex 58.5583 -26.0718 3
    endloop
  endfacet
  facet normal 0 0 1
    outer loop
      vertex 64.1 0 3
      vertex -64.1 0 3
      vertex 62.6993 -13.3271 3
    endloop
  endfacet
  facet normal 0 0 1
    outer loop
      vertex 62.6993 13.3271 3
      vertex -64.1 0 3
      vertex 64.1 0 3
    endloop
  endfacet
  facet normal 0 0 1
    outer loop
      vertex 58.5583 26.0718 3
      vertex -64.1 0 3
      vertex 62.6993 13.3271 3
    endloop
  endfacet
  facet normal 0 0 1
    outer loop
      vertex 51.858 37.677 3
      vertex -64.1 0 3
      vertex 58.5583 26.0718 3
    endloop
  endfacet
  facet normal 0 0 1
    outer loop
      vertex 42.8913 47.6356 3
      vertex -64.1 0 3
      vertex 51.858 37.677 3
    endloop
  endfacet
  facet normal 0 0 1
    outer loop
      vertex 32.05 55.5122 3
      vertex -64.1 0 3
      vertex 42.8913 47.6356 3
    endloop
  endfacet
  facet normal 0 0 1
    outer loop
      vertex 19.808 60.9627 3
      vertex -64.1 0 3
      vertex 32.05 55.5122 3
    endloop
  endfacet
  facet normal 0 0 1
    outer loop
      vertex 6.70027 63.7489 3
      vertex -64.1 0 3
      vertex 19.808 60.9627 3
    endloop
  endfacet
  facet normal 0 0 1
    outer loop
      vertex -6.70027 63.7489 3
      vertex -64.1 0 3
      vertex 6.70027 63.7489 3
    endloop
  endfacet
  facet normal 0 0 1
    outer loop
      vertex -19.808 60.9627 3
      vertex -64.1 0 3
      vertex -6.70027 63.7489 3
    endloop
  endfacet
  facet normal 0 0 1
    outer loop
      vertex -32.05 55.5122 3
      vertex -64.1 0 3
      vertex -19.808 60.9627 3
    endloop
  endfacet
  facet normal 0 0 1
    outer loop
      vertex -42.8913 47.6356 3
      vertex -64.1 0 3
      vertex -32.05 55.5122 3
    endloop
  endfacet
  facet normal 0 0 1
    outer loop
      vertex -51.858 37.677 3
      vertex -64.1 0 3
      vertex -42.8913 47.6356 3
    endloop
  endfacet
  facet normal 0 0 1
    outer loop
      vertex -58.5583 26.0718 3
      vertex -64.1 0 3
      vertex -51.858 37.677 3
    endloop
  endfacet
  facet normal 0 0 1
    outer loop
      vertex -62.6993 13.3271 3
      vertex -64.1 0 3
      vertex -58.5583 26.0718 3
    endloop
  endfacet
endsolid OpenSCAD_Model
