solid OpenSCAD_Model
  facet normal -1 0 0
    outer loop
      vertex 0 14 0
      vertex 0 14 6
      vertex 0 23 0
    endloop
  endfacet
  facet normal -1 0 0
    outer loop
      vertex 0 23 0
      vertex 0 14 6
      vertex 0 23 6
    endloop
  endfacet
  facet normal 0 -1 0
    outer loop
      vertex 0 14 6
      vertex 0 14 0
      vertex 3 14 0
    endloop
  endfacet
  facet normal 0 -1 0
    outer loop
      vertex 3 14 6
      vertex 0 14 6
      vertex 3 14 0
    endloop
  endfacet
  facet normal 0 0 -1
    outer loop
      vertex 0 14 0
      vertex 0 23 0
      vertex 3 14 0
    endloop
  endfacet
  facet normal 0 0 -1
    outer loop
      vertex 3 20 0
      vertex 0 23 0
      vertex 3 23 0
    endloop
  endfacet
  facet normal 0 0 -1
    outer loop
      vertex 3 17 0
      vertex 0 23 0
      vertex 3 20 0
    endloop
  endfacet
  facet normal 0 0 -1
    outer loop
      vertex 3 20 0
      vertex 18 20 0
      vertex 3 17 0
    endloop
  endfacet
  facet normal 0 0 -1
    outer loop
      vertex 18 56.4 0
      vertex 15 56.4 0
      vertex 15 59.4 0
    endloop
  endfacet
  facet normal 0 0 -1
    outer loop
      vertex 18 56.4 0
      vertex 15 59.4 0
      vertex 24 59.4 0
    endloop
  endfacet
  facet normal 0 0 -1
    outer loop
      vertex 21 20 0
      vertex 18 20 0
      vertex 21 56.4 0
    endloop
  endfacet
  facet normal 0 0 -1
    outer loop
      vertex 18 56.4 0
      vertex 24 59.4 0
      vertex 21 56.4 0
    endloop
  endfacet
  facet normal 0 0 -1
    outer loop
      vertex 18 56.4 0
      vertex 21 56.4 0
      vertex 18 20 0
    endloop
  endfacet
  facet normal 0 0 -1
    outer loop
      vertex 21 17 0
      vertex 71.6 20 0
      vertex 71.6 17 0
    endloop
  endfacet
  facet normal 0 0 -1
    outer loop
      vertex 3 17 0
      vertex 21 20 0
      vertex 18 17 0
    endloop
  endfacet
  facet normal 0 0 -1
    outer loop
      vertex 71.6 20 0
      vertex 71.6 23 0
      vertex 74.6 23 0
    endloop
  endfacet
  facet normal 0 0 -1
    outer loop
      vertex 71.6 20 0
      vertex 74.6 23 0
      vertex 74.6 14 0
    endloop
  endfacet
  facet normal 0 0 -1
    outer loop
      vertex 71.6 17 0
      vertex 74.6 14 0
      vertex 71.6 14 0
    endloop
  endfacet
  facet normal 0 0 -1
    outer loop
      vertex 21 3 0
      vertex 24 0 0
      vertex 18 3 0
    endloop
  endfacet
  facet normal 0 0 -1
    outer loop
      vertex 71.6 20 0
      vertex 74.6 14 0
      vertex 71.6 17 0
    endloop
  endfacet
  facet normal 0 0 -1
    outer loop
      vertex 21 20 0
      vertex 71.6 20 0
      vertex 21 17 0
    endloop
  endfacet
  facet normal 0 0 -1
    outer loop
      vertex 3 17 0
      vertex 18 20 0
      vertex 21 20 0
    endloop
  endfacet
  facet normal 0 0 -1
    outer loop
      vertex 18 17 0
      vertex 21 17 0
      vertex 21 3 0
    endloop
  endfacet
  facet normal 0 0 -1
    outer loop
      vertex 21 3 0
      vertex 24 3 0
      vertex 24 0 0
    endloop
  endfacet
  facet normal 0 0 -1
    outer loop
      vertex 24 0 0
      vertex 15 0 0
      vertex 15 3 0
    endloop
  endfacet
  facet normal 0 0 -1
    outer loop
      vertex 24 0 0
      vertex 15 3 0
      vertex 18 3 0
    endloop
  endfacet
  facet normal 0 0 -1
    outer loop
      vertex 21 20 0
      vertex 21 17 0
      vertex 18 17 0
    endloop
  endfacet
  facet normal 0 0 -1
    outer loop
      vertex 3 14 0
      vertex 0 23 0
      vertex 3 17 0
    endloop
  endfacet
  facet normal 0 0 -1
    outer loop
      vertex 21 56.4 0
      vertex 24 59.4 0
      vertex 24 56.4 0
    endloop
  endfacet
  facet normal 0 0 -1
    outer loop
      vertex 18 17 0
      vertex 21 3 0
      vertex 18 3 0
    endloop
  endfacet
  facet normal 0 1 0
    outer loop
      vertex 0 23 0
      vertex 0 23 6
      vertex 3 23 0
    endloop
  endfacet
  facet normal 0 1 0
    outer loop
      vertex 3 23 0
      vertex 0 23 6
      vertex 3 23 6
    endloop
  endfacet
  facet normal 0 0 1
    outer loop
      vertex 0 23 6
      vertex 0 14 6
      vertex 3 14 6
    endloop
  endfacet
  facet normal 0 0 1
    outer loop
      vertex 3 23 6
      vertex 0 23 6
      vertex 3 14 6
    endloop
  endfacet
  facet normal 1 0 0
    outer loop
      vertex 3 14 6
      vertex 3 14 0
      vertex 3 17 0
    endloop
  endfacet
  facet normal 1 0 0
    outer loop
      vertex 3 20 3
      vertex 3 14 6
      vertex 3 17 3
    endloop
  endfacet
  facet normal 1 0 0
    outer loop
      vertex 3 17 3
      vertex 3 14 6
      vertex 3 17 0
    endloop
  endfacet
  facet normal 1 0 0
    outer loop
      vertex 3 23 6
      vertex 3 14 6
      vertex 3 20 3
    endloop
  endfacet
  facet normal 1 0 0
    outer loop
      vertex 3 23 0
      vertex 3 20 3
      vertex 3 20 0
    endloop
  endfacet
  facet normal 1 0 0
    outer loop
      vertex 3 23 6
      vertex 3 20 3
      vertex 3 23 0
    endloop
  endfacet
  facet normal 0 -1 0
    outer loop
      vertex 3 17 3
      vertex 3 17 0
      vertex 18 17 0
    endloop
  endfacet
  facet normal 0 -1 0
    outer loop
      vertex 18 17 3
      vertex 3 17 3
      vertex 18 17 0
    endloop
  endfacet
  facet normal -1 0 0
    outer loop
      vertex 18 3 0
      vertex 18 3 3
      vertex 18 17 0
    endloop
  endfacet
  facet normal -1 0 0
    outer loop
      vertex 18 17 0
      vertex 18 3 3
      vertex 18 17 3
    endloop
  endfacet
  facet normal 0 1 0
    outer loop
      vertex 15 3 0
      vertex 15 3 6
      vertex 18 3 0
    endloop
  endfacet
  facet normal 0 1 0
    outer loop
      vertex 18 3 3
      vertex 15 3 6
      vertex 21 3 3
    endloop
  endfacet
  facet normal 0 1 0
    outer loop
      vertex 21 3 0
      vertex 24 3 6
      vertex 24 3 0
    endloop
  endfacet
  facet normal 0 1 0
    outer loop
      vertex 21 3 3
      vertex 24 3 6
      vertex 21 3 0
    endloop
  endfacet
  facet normal 0 1 0
    outer loop
      vertex 15 3 6
      vertex 24 3 6
      vertex 21 3 3
    endloop
  endfacet
  facet normal 0 1 0
    outer loop
      vertex 18 3 0
      vertex 15 3 6
      vertex 18 3 3
    endloop
  endfacet
  facet normal -1 0 0
    outer loop
      vertex 15 0 0
      vertex 15 0 6
      vertex 15 3 0
    endloop
  endfacet
  facet normal -1 0 0
    outer loop
      vertex 15 3 0
      vertex 15 0 6
      vertex 15 3 6
    endloop
  endfacet
  facet normal 0 -1 0
    outer loop
      vertex 15 0 6
      vertex 15 0 0
      vertex 24 0 0
    endloop
  endfacet
  facet normal 0 -1 0
    outer loop
      vertex 24 0 6
      vertex 15 0 6
      vertex 24 0 0
    endloop
  endfacet
  facet normal 1 0 0
    outer loop
      vertex 24 0 6
      vertex 24 0 0
      vertex 24 3 0
    endloop
  endfacet
  facet normal 1 0 0
    outer loop
      vertex 24 3 6
      vertex 24 0 6
      vertex 24 3 0
    endloop
  endfacet
  facet normal 1 0 0
    outer loop
      vertex 21 3 3
      vertex 21 3 0
      vertex 21 17 0
    endloop
  endfacet
  facet normal 1 0 0
    outer loop
      vertex 21 17 3
      vertex 21 3 3
      vertex 21 17 0
    endloop
  endfacet
  facet normal 0 -1 0
    outer loop
      vertex 21 17 3
      vertex 21 17 0
      vertex 71.6 17 0
    endloop
  endfacet
  facet normal 0 -1 0
    outer loop
      vertex 71.6 17 3
      vertex 21 17 3
      vertex 71.6 17 0
    endloop
  endfacet
  facet normal -1 0 0
    outer loop
      vertex 71.6 14 0
      vertex 71.6 14 6
      vertex 71.6 17 0
    endloop
  endfacet
  facet normal -1 0 0
    outer loop
      vertex 71.6 17 3
      vertex 71.6 14 6
      vertex 71.6 20 3
    endloop
  endfacet
  facet normal -1 0 0
    outer loop
      vertex 71.6 20 0
      vertex 71.6 23 6
      vertex 71.6 23 0
    endloop
  endfacet
  facet normal -1 0 0
    outer loop
      vertex 71.6 20 3
      vertex 71.6 23 6
      vertex 71.6 20 0
    endloop
  endfacet
  facet normal -1 0 0
    outer loop
      vertex 71.6 14 6
      vertex 71.6 23 6
      vertex 71.6 20 3
    endloop
  endfacet
  facet normal -1 0 0
    outer loop
      vertex 71.6 17 0
      vertex 71.6 14 6
      vertex 71.6 17 3
    endloop
  endfacet
  facet normal 0 -1 0
    outer loop
      vertex 71.6 14 6
      vertex 71.6 14 0
      vertex 74.6 14 0
    endloop
  endfacet
  facet normal 0 -1 0
    outer loop
      vertex 74.6 14 6
      vertex 71.6 14 6
      vertex 74.6 14 0
    endloop
  endfacet
  facet normal 1 0 0
    outer loop
      vertex 74.6 14 6
      vertex 74.6 14 0
      vertex 74.6 23 0
    endloop
  endfacet
  facet normal 1 0 0
    outer loop
      vertex 74.6 23 6
      vertex 74.6 14 6
      vertex 74.6 23 0
    endloop
  endfacet
  facet normal 0 1 0
    outer loop
      vertex 71.6 23 0
      vertex 71.6 23 6
      vertex 74.6 23 0
    endloop
  endfacet
  facet normal 0 1 0
    outer loop
      vertex 74.6 23 0
      vertex 71.6 23 6
      vertex 74.6 23 6
    endloop
  endfacet
  facet normal 0 1 0
    outer loop
      vertex 21 20 0
      vertex 21 20 3
      vertex 71.6 20 0
    endloop
  endfacet
  facet normal 0 1 0
    outer loop
      vertex 71.6 20 0
      vertex 21 20 3
      vertex 71.6 20 3
    endloop
  endfacet
  facet normal 1 0 0
    outer loop
      vertex 21 20 3
      vertex 21 20 0
      vertex 21 56.4 0
    endloop
  endfacet
  facet normal 1 0 0
    outer loop
      vertex 21 56.4 3
      vertex 21 20 3
      vertex 21 56.4 0
    endloop
  endfacet
  facet normal 0 -1 0
    outer loop
      vertex 15 56.4 6
      vertex 15 56.4 0
      vertex 18 56.4 0
    endloop
  endfacet
  facet normal 0 -1 0
    outer loop
      vertex 21 56.4 3
      vertex 15 56.4 6
      vertex 18 56.4 3
    endloop
  endfacet
  facet normal 0 -1 0
    outer loop
      vertex 18 56.4 3
      vertex 15 56.4 6
      vertex 18 56.4 0
    endloop
  endfacet
  facet normal 0 -1 0
    outer loop
      vertex 24 56.4 6
      vertex 15 56.4 6
      vertex 21 56.4 3
    endloop
  endfacet
  facet normal 0 -1 0
    outer loop
      vertex 24 56.4 0
      vertex 21 56.4 3
      vertex 21 56.4 0
    endloop
  endfacet
  facet normal 0 -1 0
    outer loop
      vertex 24 56.4 6
      vertex 21 56.4 3
      vertex 24 56.4 0
    endloop
  endfacet
  facet normal 1 0 0
    outer loop
      vertex 24 56.4 6
      vertex 24 56.4 0
      vertex 24 59.4 0
    endloop
  endfacet
  facet normal 1 0 0
    outer loop
      vertex 24 59.4 6
      vertex 24 56.4 6
      vertex 24 59.4 0
    endloop
  endfacet
  facet normal 0 1 0
    outer loop
      vertex 15 59.4 0
      vertex 15 59.4 6
      vertex 24 59.4 0
    endloop
  endfacet
  facet normal 0 1 0
    outer loop
      vertex 24 59.4 0
      vertex 15 59.4 6
      vertex 24 59.4 6
    endloop
  endfacet
  facet normal -1 0 0
    outer loop
      vertex 15 56.4 0
      vertex 15 56.4 6
      vertex 15 59.4 0
    endloop
  endfacet
  facet normal -1 0 0
    outer loop
      vertex 15 59.4 0
      vertex 15 56.4 6
      vertex 15 59.4 6
    endloop
  endfacet
  facet normal -1 0 0
    outer loop
      vertex 18 20 0
      vertex 18 20 3
      vertex 18 56.4 0
    endloop
  endfacet
  facet normal -1 0 0
    outer loop
      vertex 18 56.4 0
      vertex 18 20 3
      vertex 18 56.4 3
    endloop
  endfacet
  facet normal 0 1 0
    outer loop
      vertex 3 20 0
      vertex 3 20 3
      vertex 18 20 0
    endloop
  endfacet
  facet normal 0 1 0
    outer loop
      vertex 18 20 0
      vertex 3 20 3
      vertex 18 20 3
    endloop
  endfacet
  facet normal 0 0 1
    outer loop
      vertex 3 20 3
      vertex 3 17 3
      vertex 18 17 3
    endloop
  endfacet
  facet normal 0 0 1
    outer loop
      vertex 21 17 3
      vertex 3 20 3
      vertex 18 17 3
    endloop
  endfacet
  facet normal 0 0 1
    outer loop
      vertex 18 3 3
      vertex 21 3 3
      vertex 18 17 3
    endloop
  endfacet
  facet normal 0 0 1
    outer loop
      vertex 21 3 3
      vertex 21 17 3
      vertex 18 17 3
    endloop
  endfacet
  facet normal 0 0 1
    outer loop
      vertex 21 17 3
      vertex 71.6 17 3
      vertex 3 20 3
    endloop
  endfacet
  facet normal 0 0 1
    outer loop
      vertex 71.6 17 3
      vertex 21 20 3
      vertex 18 20 3
    endloop
  endfacet
  facet normal 0 0 1
    outer loop
      vertex 71.6 17 3
      vertex 71.6 20 3
      vertex 21 20 3
    endloop
  endfacet
  facet normal 0 0 1
    outer loop
      vertex 71.6 17 3
      vertex 18 20 3
      vertex 3 20 3
    endloop
  endfacet
  facet normal 0 0 1
    outer loop
      vertex 21 20 3
      vertex 21 56.4 3
      vertex 18 20 3
    endloop
  endfacet
  facet normal 0 0 1
    outer loop
      vertex 18 56.4 3
      vertex 18 20 3
      vertex 21 56.4 3
    endloop
  endfacet
  facet normal 0 0 1
    outer loop
      vertex 15 3 6
      vertex 15 0 6
      vertex 24 0 6
    endloop
  endfacet
  facet normal 0 0 1
    outer loop
      vertex 24 3 6
      vertex 15 3 6
      vertex 24 0 6
    endloop
  endfacet
  facet normal 0 0 1
    outer loop
      vertex 71.6 23 6
      vertex 71.6 14 6
      vertex 74.6 14 6
    endloop
  endfacet
  facet normal 0 0 1
    outer loop
      vertex 74.6 23 6
      vertex 71.6 23 6
      vertex 74.6 14 6
    endloop
  endfacet
  facet normal 0 0 1
    outer loop
      vertex 15 59.4 6
      vertex 15 56.4 6
      vertex 24 56.4 6
    endloop
  endfacet
  facet normal 0 0 1
    outer loop
      vertex 24 59.4 6
      vertex 15 59.4 6
      vertex 24 56.4 6
    endloop
  endfacet
endsolid OpenSCAD_Model
