solid OpenSCAD_Model
  facet normal -1 0 0
    outer loop
      vertex 0 20 0
      vertex 0 20 6
      vertex 0 23 0
    endloop
  endfacet
  facet normal -1 0 0
    outer loop
      vertex 0 23 0
      vertex 0 20 6
      vertex 0 23 6
    endloop
  endfacet
  facet normal 0 -1 0
    outer loop
      vertex 3 20 3
      vertex 0 20 0
      vertex 12 20 0
    endloop
  endfacet
  facet normal 0 -1 0
    outer loop
      vertex 3 20 3
      vertex 3 20 6
      vertex 0 20 6
    endloop
  endfacet
  facet normal 0 -1 0
    outer loop
      vertex 0 20 6
      vertex 0 20 0
      vertex 3 20 3
    endloop
  endfacet
  facet normal 0 -1 0
    outer loop
      vertex 12 20 3
      vertex 3 20 3
      vertex 12 20 0
    endloop
  endfacet
  facet normal 0 0 -1
    outer loop
      vertex 0 20 0
      vertex 0 23 0
      vertex 12 20 0
    endloop
  endfacet
  facet normal 0 0 -1
    outer loop
      vertex 12 20 0
      vertex 0 23 0
      vertex 12 23 0
    endloop
  endfacet
  facet normal 0 0 -1
    outer loop
      vertex 12 23 0
      vertex 12 59.4 0
      vertex 15 59.4 0
    endloop
  endfacet
  facet normal 0 0 -1
    outer loop
      vertex 12 23 0
      vertex 15 59.4 0
      vertex 12 20 0
    endloop
  endfacet
  facet normal 0 0 -1
    outer loop
      vertex 12 20 0
      vertex 15 59.4 0
      vertex 15 23 0
    endloop
  endfacet
  facet normal 0 0 -1
    outer loop
      vertex 12 20 0
      vertex 15 23 0
      vertex 74.6 23 0
    endloop
  endfacet
  facet normal 0 0 -1
    outer loop
      vertex 15 20 0
      vertex 74.6 23 0
      vertex 74.6 20 0
    endloop
  endfacet
  facet normal 0 0 -1
    outer loop
      vertex 12 20 0
      vertex 74.6 23 0
      vertex 15 20 0
    endloop
  endfacet
  facet normal 0 0 -1
    outer loop
      vertex 15 20 0
      vertex 15 0 0
      vertex 12 20 0
    endloop
  endfacet
  facet normal 0 0 -1
    outer loop
      vertex 12 20 0
      vertex 15 0 0
      vertex 12 0 0
    endloop
  endfacet
  facet normal 0 1 0
    outer loop
      vertex 12 23 3
      vertex 12 23 0
      vertex 3 23 3
    endloop
  endfacet
  facet normal 0 1 0
    outer loop
      vertex 0 23 0
      vertex 0 23 6
      vertex 3 23 3
    endloop
  endfacet
  facet normal 0 1 0
    outer loop
      vertex 0 23 0
      vertex 3 23 3
      vertex 12 23 0
    endloop
  endfacet
  facet normal 0 1 0
    outer loop
      vertex 3 23 3
      vertex 0 23 6
      vertex 3 23 6
    endloop
  endfacet
  facet normal 0 0 1
    outer loop
      vertex 0 23 6
      vertex 0 20 6
      vertex 3 20 6
    endloop
  endfacet
  facet normal 0 0 1
    outer loop
      vertex 3 23 6
      vertex 0 23 6
      vertex 3 20 6
    endloop
  endfacet
  facet normal 1 0 0
    outer loop
      vertex 3 20 6
      vertex 3 20 3
      vertex 3 23 3
    endloop
  endfacet
  facet normal 1 0 0
    outer loop
      vertex 3 23 6
      vertex 3 20 6
      vertex 3 23 3
    endloop
  endfacet
  facet normal 0 0 1
    outer loop
      vertex 3 23 3
      vertex 3 20 3
      vertex 12 20 3
    endloop
  endfacet
  facet normal 0 0 1
    outer loop
      vertex 15 20 3
      vertex 3 23 3
      vertex 12 20 3
    endloop
  endfacet
  facet normal 0 0 1
    outer loop
      vertex 12 3 3
      vertex 15 3 3
      vertex 12 20 3
    endloop
  endfacet
  facet normal 0 0 1
    outer loop
      vertex 15 3 3
      vertex 15 20 3
      vertex 12 20 3
    endloop
  endfacet
  facet normal 0 0 1
    outer loop
      vertex 15 20 3
      vertex 71.6 20 3
      vertex 3 23 3
    endloop
  endfacet
  facet normal 0 0 1
    outer loop
      vertex 71.6 20 3
      vertex 15 23 3
      vertex 12 23 3
    endloop
  endfacet
  facet normal 0 0 1
    outer loop
      vertex 71.6 20 3
      vertex 71.6 23 3
      vertex 15 23 3
    endloop
  endfacet
  facet normal 0 0 1
    outer loop
      vertex 71.6 20 3
      vertex 12 23 3
      vertex 3 23 3
    endloop
  endfacet
  facet normal 0 0 1
    outer loop
      vertex 15 23 3
      vertex 15 56.4 3
      vertex 12 23 3
    endloop
  endfacet
  facet normal 0 0 1
    outer loop
      vertex 12 56.4 3
      vertex 12 23 3
      vertex 15 56.4 3
    endloop
  endfacet
  facet normal -1 0 0
    outer loop
      vertex 12 20 3
      vertex 12 20 0
      vertex 12 3 3
    endloop
  endfacet
  facet normal -1 0 0
    outer loop
      vertex 12 0 0
      vertex 12 0 6
      vertex 12 3 3
    endloop
  endfacet
  facet normal -1 0 0
    outer loop
      vertex 12 0 0
      vertex 12 3 3
      vertex 12 20 0
    endloop
  endfacet
  facet normal -1 0 0
    outer loop
      vertex 12 3 3
      vertex 12 0 6
      vertex 12 3 6
    endloop
  endfacet
  facet normal 0 -1 0
    outer loop
      vertex 12 0 6
      vertex 12 0 0
      vertex 15 0 0
    endloop
  endfacet
  facet normal 0 -1 0
    outer loop
      vertex 15 0 6
      vertex 12 0 6
      vertex 15 0 0
    endloop
  endfacet
  facet normal 1 0 0
    outer loop
      vertex 15 3 3
      vertex 15 0 0
      vertex 15 20 0
    endloop
  endfacet
  facet normal 1 0 0
    outer loop
      vertex 15 3 3
      vertex 15 3 6
      vertex 15 0 6
    endloop
  endfacet
  facet normal 1 0 0
    outer loop
      vertex 15 0 6
      vertex 15 0 0
      vertex 15 3 3
    endloop
  endfacet
  facet normal 1 0 0
    outer loop
      vertex 15 20 3
      vertex 15 3 3
      vertex 15 20 0
    endloop
  endfacet
  facet normal 0 -1 0
    outer loop
      vertex 15 20 3
      vertex 15 20 0
      vertex 74.6 20 0
    endloop
  endfacet
  facet normal 0 -1 0
    outer loop
      vertex 71.6 20 3
      vertex 15 20 3
      vertex 74.6 20 0
    endloop
  endfacet
  facet normal 0 -1 0
    outer loop
      vertex 74.6 20 6
      vertex 71.6 20 3
      vertex 74.6 20 0
    endloop
  endfacet
  facet normal 0 -1 0
    outer loop
      vertex 71.6 20 6
      vertex 71.6 20 3
      vertex 74.6 20 6
    endloop
  endfacet
  facet normal 1 0 0
    outer loop
      vertex 74.6 20 6
      vertex 74.6 20 0
      vertex 74.6 23 0
    endloop
  endfacet
  facet normal 1 0 0
    outer loop
      vertex 74.6 23 6
      vertex 74.6 20 6
      vertex 74.6 23 0
    endloop
  endfacet
  facet normal 0 1 0
    outer loop
      vertex 15 23 0
      vertex 15 23 3
      vertex 74.6 23 0
    endloop
  endfacet
  facet normal 0 1 0
    outer loop
      vertex 74.6 23 0
      vertex 15 23 3
      vertex 71.6 23 3
    endloop
  endfacet
  facet normal 0 1 0
    outer loop
      vertex 74.6 23 0
      vertex 71.6 23 3
      vertex 71.6 23 6
    endloop
  endfacet
  facet normal 0 1 0
    outer loop
      vertex 74.6 23 0
      vertex 71.6 23 6
      vertex 74.6 23 6
    endloop
  endfacet
  facet normal 1 0 0
    outer loop
      vertex 15 23 3
      vertex 15 23 0
      vertex 15 59.4 0
    endloop
  endfacet
  facet normal 1 0 0
    outer loop
      vertex 15 56.4 3
      vertex 15 23 3
      vertex 15 59.4 0
    endloop
  endfacet
  facet normal 1 0 0
    outer loop
      vertex 15 59.4 6
      vertex 15 56.4 3
      vertex 15 59.4 0
    endloop
  endfacet
  facet normal 1 0 0
    outer loop
      vertex 15 56.4 6
      vertex 15 56.4 3
      vertex 15 59.4 6
    endloop
  endfacet
  facet normal 0 1 0
    outer loop
      vertex 12 59.4 0
      vertex 12 59.4 6
      vertex 15 59.4 0
    endloop
  endfacet
  facet normal 0 1 0
    outer loop
      vertex 15 59.4 0
      vertex 12 59.4 6
      vertex 15 59.4 6
    endloop
  endfacet
  facet normal -1 0 0
    outer loop
      vertex 12 23 0
      vertex 12 23 3
      vertex 12 59.4 0
    endloop
  endfacet
  facet normal -1 0 0
    outer loop
      vertex 12 59.4 0
      vertex 12 23 3
      vertex 12 56.4 3
    endloop
  endfacet
  facet normal -1 0 0
    outer loop
      vertex 12 59.4 0
      vertex 12 56.4 3
      vertex 12 56.4 6
    endloop
  endfacet
  facet normal -1 0 0
    outer loop
      vertex 12 59.4 0
      vertex 12 56.4 6
      vertex 12 59.4 6
    endloop
  endfacet
  facet normal 0 -1 0
    outer loop
      vertex 12 56.4 6
      vertex 12 56.4 3
      vertex 15 56.4 3
    endloop
  endfacet
  facet normal 0 -1 0
    outer loop
      vertex 15 56.4 6
      vertex 12 56.4 6
      vertex 15 56.4 3
    endloop
  endfacet
  facet normal -1 0 0
    outer loop
      vertex 71.6 20 3
      vertex 71.6 20 6
      vertex 71.6 23 3
    endloop
  endfacet
  facet normal -1 0 0
    outer loop
      vertex 71.6 23 3
      vertex 71.6 20 6
      vertex 71.6 23 6
    endloop
  endfacet
  facet normal 0 1 0
    outer loop
      vertex 12 3 3
      vertex 12 3 6
      vertex 15 3 3
    endloop
  endfacet
  facet normal 0 1 0
    outer loop
      vertex 15 3 3
      vertex 12 3 6
      vertex 15 3 6
    endloop
  endfacet
  facet normal 0 0 1
    outer loop
      vertex 12 3 6
      vertex 12 0 6
      vertex 15 0 6
    endloop
  endfacet
  facet normal 0 0 1
    outer loop
      vertex 15 3 6
      vertex 12 3 6
      vertex 15 0 6
    endloop
  endfacet
  facet normal 0 0 1
    outer loop
      vertex 71.6 23 6
      vertex 71.6 20 6
      vertex 74.6 20 6
    endloop
  endfacet
  facet normal 0 0 1
    outer loop
      vertex 74.6 23 6
      vertex 71.6 23 6
      vertex 74.6 20 6
    endloop
  endfacet
  facet normal 0 0 1
    outer loop
      vertex 12 59.4 6
      vertex 12 56.4 6
      vertex 15 56.4 6
    endloop
  endfacet
  facet normal 0 0 1
    outer loop
      vertex 15 59.4 6
      vertex 12 59.4 6
      vertex 15 56.4 6
    endloop
  endfacet
endsolid OpenSCAD_Model
